<?xml version="1.0" encoding="UTF-8"?>
<!DOCTYPE svg PUBLIC "-//W3C//DTD SVG 1.1//EN" "http://www.w3.org/Graphics/SVG/1.1/DTD/svg11.dtd">
<!-- Creator: CorelDRAW X7 -->
<svg xmlns="http://www.w3.org/2000/svg" xml:space="preserve" width="1024px" height="1024px" version="1.1" style="shape-rendering:geometricPrecision; text-rendering:geometricPrecision; image-rendering:optimizeQuality; fill-rule:evenodd; clip-rule:evenodd"
viewBox="0 0 10240 10240"
 xmlns:xlink="http://www.w3.org/1999/xlink">
 <defs>
  <style type="text/css">
   <![CDATA[
    .fil0 {fill:#26A4E3}
   ]]>
  </style>
 </defs>
 <g id="Слой_x0020_1">
  <metadata id="CorelCorpID_0Corel-Layer"/>
  <path class="fil0" d="M10240 5120c0,2827 -2293,5120 -5120,5120 -2827,0 -5120,-2293 -5120,-5120 0,-2827 2293,-5120 5120,-5120 2827,0 5120,2293 5120,5120zm-4936 -1340c-498,207 -1494,636 -2987,1286 -241,96 -369,191 -380,283 -20,156 176,217 441,301l112 35c261,85 613,184 796,188 166,4 351,-64 555,-205 1395,-941 2115,-1416 2160,-1427 32,-7 76,-16 106,11 30,26 27,76 24,90 -20,82 -786,794 -1182,1163 -123,115 -211,196 -229,215 -39,39 -80,80 -120,118 -243,235 -425,410 9,697 210,138 377,251 544,365 182,124 364,248 600,403 59,38 117,80 172,119 212,151 404,287 638,265 137,-12 279,-140 350,-524 170,-907 504,-2871 580,-3681 2,-21 2,-42 2,-63 0,-46 -3,-93 -10,-138 -6,-54 -32,-104 -73,-139 -56,-39 -123,-60 -191,-60 -3,0 -5,0 -8,0 -192,3 -488,106 -1909,698l0 0z"/>
 </g>
</svg>
